<svg width="690" height="211" viewBox="0 0 690 211" fill="none" xmlns="http://www.w3.org/2000/svg">
<rect width="690" height="210" rx="15" fill="#4D0000"/>
<path d="M530.952 131V84.28H536.712V104.248H551.688V84.28H557.448V131H551.688V109.496H536.712V131H530.952ZM582.575 131.64C578.223 131.64 574.895 130.445 572.591 128.056C570.287 125.624 569.135 122.339 569.135 118.2V84.28H574.895V118.2C574.895 120.76 575.514 122.787 576.751 124.28C578.031 125.773 579.972 126.52 582.575 126.52C585.135 126.52 587.055 125.773 588.335 124.28C589.615 122.787 590.255 120.76 590.255 118.2V84.28H596.015V118.2C596.015 122.381 594.863 125.667 592.559 128.056C590.298 130.445 586.97 131.64 582.575 131.64ZM607.702 131V84.28H620.95C625.217 84.28 628.545 85.3467 630.934 87.48C633.366 89.6133 634.582 92.5787 634.582 96.376C634.582 98.5093 634.134 100.365 633.238 101.944C632.342 103.523 631.062 104.739 629.398 105.592C627.777 106.445 625.814 106.851 623.51 106.808V105.848C625.985 105.805 628.118 106.275 629.91 107.256C631.745 108.237 633.153 109.645 634.134 111.48C635.158 113.315 635.67 115.491 635.67 118.008C635.67 120.653 635.115 122.957 634.006 124.92C632.897 126.883 631.318 128.397 629.27 129.464C627.222 130.488 624.769 131 621.91 131H607.702ZM613.334 125.816H621.27C623.958 125.816 626.07 125.112 627.606 123.704C629.185 122.253 629.974 120.291 629.974 117.816C629.974 115.256 629.185 113.187 627.606 111.608C626.07 109.987 623.958 109.176 621.27 109.176H613.334V125.816ZM613.334 104.184H620.886C623.361 104.184 625.302 103.523 626.71 102.2C628.161 100.877 628.886 99.0853 628.886 96.824C628.886 94.5627 628.182 92.7707 626.774 91.448C625.366 90.1253 623.425 89.464 620.95 89.464H613.334V104.184Z" fill="url(#paint0_linear_113_12)"/>
<path d="M80.25 112.25C80.75 112.667 81.125 113.542 81.375 114.875C81.625 116.208 81.75 117.667 81.75 119.25C81.75 120.833 81.625 122.292 81.375 123.625C81.125 124.958 80.75 125.75 80.25 126C80 126.167 79.375 126.208 78.375 126.125C77.4583 126.042 76.375 125.875 75.125 125.625C75.2917 127.042 75.4167 128.458 75.5 129.875C75.5833 131.292 75.625 132.458 75.625 133.375C75.625 134.958 75.2917 137 74.625 139.5C74.0417 142 73.25 144.458 72.25 146.875C71.25 149.208 70.1667 151.208 69 152.875C67.9167 154.542 66.875 155.333 65.875 155.25C65.2083 155.25 64.25 154.958 63 154.375C61.8333 153.875 60.5 153.208 59 152.375C57.5 151.625 55.9167 150.75 54.25 149.75C52.6667 148.75 51.2083 147.792 49.875 146.875C48.5417 145.875 47.375 144.958 46.375 144.125C45.4583 143.292 44.875 142.625 44.625 142.125C44.2083 141.375 43.6667 139.583 43 136.75C42.3333 133.917 41.6667 130.458 41 126.375C40.3333 122.208 39.75 117.667 39.25 112.75C38.75 107.75 38.5 102.75 38.5 97.75C38.5 92.75 38.5833 87.8333 38.75 83C38.9167 78.1667 39.2083 73.8333 39.625 70C40.125 66.0833 40.75 62.9583 41.5 60.625C42.3333 58.2083 43.3333 56.9167 44.5 56.75C48 56.4167 51.75 56.9167 55.75 58.25C59.8333 59.5833 63.625 61.2917 67.125 63.375C70.625 65.4583 73.5417 67.625 75.875 69.875C78.2083 72.125 79.4583 73.9583 79.625 75.375C79.7083 76.7917 79.5417 78.375 79.125 80.125C78.7083 81.7917 78.2083 83.4583 77.625 85.125C77.0417 86.7083 76.4167 88.1667 75.75 89.5C75.1667 90.75 74.7083 91.625 74.375 92.125C73.9583 92.7083 73.4167 93.3333 72.75 94C72.1667 94.6667 71.5417 95.25 70.875 95.75C70.2917 96.25 69.6667 96.625 69 96.875C68.4167 97.0417 67.875 96.9583 67.375 96.625C67.0417 96.375 66.7083 95.5833 66.375 94.25C66.125 92.9167 65.8333 91.3333 65.5 89.5C65.25 87.5833 65 85.5833 64.75 83.5C64.5 81.3333 64.25 79.3333 64 77.5C63.8333 75.6667 63.6667 74.125 63.5 72.875C63.3333 71.625 63.2083 70.9167 63.125 70.75C62.9583 70.5 62.6667 70.25 62.25 70C61.9167 69.75 61.5 69.5417 61 69.375C60.5 69.2083 60.0417 69.1667 59.625 69.25C59.2083 69.25 58.875 69.4583 58.625 69.875C58.375 70.2917 57.9167 71.8333 57.25 74.5C56.5833 77.1667 55.9167 80.5 55.25 84.5C54.6667 88.5 54.125 92.9583 53.625 97.875C53.125 102.708 52.875 107.583 52.875 112.5C52.875 116 52.9583 119.667 53.125 123.5C53.375 127.25 53.6667 130.708 54 133.875C54.4167 136.958 54.875 139.542 55.375 141.625C55.9583 143.708 56.5417 144.75 57.125 144.75C57.7083 144.833 58.5 144.25 59.5 143C60.5 141.667 61.4583 140.167 62.375 138.5C63.2917 136.75 64.125 135.083 64.875 133.5C65.7083 131.833 66.25 130.667 66.5 130C66.9167 129.083 67.3333 128.167 67.75 127.25C68.25 126.25 68.7917 125.292 69.375 124.375C68.0417 124.042 66.7083 123.667 65.375 123.25C64.125 122.833 62.9583 122.458 61.875 122.125C60.7917 121.708 59.875 121.333 59.125 121C58.4583 120.583 58.0417 120.25 57.875 120C57.625 119.583 57.4583 119.042 57.375 118.375C57.2917 117.625 57.25 116.917 57.25 116.25C57.3333 115.5 57.4167 114.833 57.5 114.25C57.6667 113.583 57.7917 113.042 57.875 112.625C58.0417 112.042 59.1667 111.625 61.25 111.375C63.4167 111.125 65.7917 111 68.375 111C71.0417 111 73.5417 111.125 75.875 111.375C78.2083 111.542 79.6667 111.833 80.25 112.25ZM138.625 117.625C138.792 117.875 138.75 118.708 138.5 120.125C138.333 121.542 138.042 123.083 137.625 124.75C137.292 126.417 136.917 128 136.5 129.5C136.167 130.917 135.875 131.75 135.625 132H134.375C134.125 132 133.875 131.958 133.625 131.875C134.042 135.875 134.375 139.083 134.625 141.5C134.875 143.917 135 145.25 135 145.5C135 146.083 134.708 146.917 134.125 148C133.625 149.083 133.042 150.083 132.375 151C131.708 151.917 131 152.625 130.25 153.125C129.583 153.708 129.125 153.75 128.875 153.25C128.458 152.5 127.583 150.25 126.25 146.5C124.917 142.75 123.417 137.625 121.75 131.125C120.083 130.958 118.333 130.792 116.5 130.625C114.75 130.458 112.958 130.292 111.125 130.125C109.292 129.958 107.458 129.75 105.625 129.5C103.875 129.167 102.167 128.875 100.5 128.625C99.6667 132.292 98.8333 135.75 98 139C97.25 142.25 96.5 145.083 95.75 147.5C95.0833 149.917 94.5 151.833 94 153.25C93.5 154.667 93.125 155.375 92.875 155.375C92.2083 155.375 91.5417 154.958 90.875 154.125C90.2083 153.292 89.5833 152.292 89 151.125C88.5 149.958 88.0833 148.75 87.75 147.5C87.4167 146.25 87.25 145.208 87.25 144.375C87.4167 142.458 87.625 140.458 87.875 138.375C88.2083 136.292 88.4583 134.375 88.625 132.625C88.875 130.542 89.125 128.5 89.375 126.5H88.875C88.5417 126.333 88.0833 125.958 87.5 125.375C86.9167 124.792 86.3333 124.208 85.75 123.625C85.1667 122.958 84.6667 122.333 84.25 121.75C83.8333 121.083 83.625 120.583 83.625 120.25C83.625 120.083 84.2083 119.917 85.375 119.75C86.625 119.583 88.25 119.417 90.25 119.25C90.9167 114.25 91.625 109.042 92.375 103.625C93.125 98.2083 93.875 93.125 94.625 88.375C95.375 83.625 96.0833 79.5 96.75 76C97.5 72.4167 98.125 69.9583 98.625 68.625C99.4583 66.375 100.917 64.375 103 62.625C105.083 60.7917 107.25 59.2917 109.5 58.125C111.833 56.875 114.042 55.9167 116.125 55.25C118.208 54.5833 119.75 54.25 120.75 54.25C121.167 54.25 121.625 55.2083 122.125 57.125C122.708 58.9583 123.292 61.4583 123.875 64.625C124.542 67.7917 125.208 71.5 125.875 75.75C126.625 79.9167 127.333 84.3333 128 89C128.667 93.6667 129.292 98.4583 129.875 103.375C130.542 108.208 131.167 112.833 131.75 117.25C135.917 117.25 138.208 117.375 138.625 117.625ZM102.875 118.375C105.542 118.208 108.208 118.083 110.875 118C113.542 117.917 116.167 117.792 118.75 117.625C118.083 114.375 117.333 110.75 116.5 106.75C115.833 103.333 115.042 99.3333 114.125 94.75C113.208 90.1667 112.292 85.125 111.375 79.625C110.375 84.5417 109.375 89.3333 108.375 94C107.375 98.5833 106.458 102.708 105.625 106.375C104.708 110.625 103.792 114.625 102.875 118.375ZM203.5 64.75C203.667 65.0833 203.75 66.25 203.75 68.25C203.833 70.25 203.833 72.6667 203.75 75.5C203.75 78.3333 203.667 81.375 203.5 84.625C203.333 87.7917 203.125 90.7917 202.875 93.625C202.708 95.2083 202.417 97.5833 202 100.75C201.667 103.917 201.25 107.417 200.75 111.25C200.25 115.083 199.708 119.042 199.125 123.125C198.625 127.125 198.125 130.833 197.625 134.25C197.125 137.583 196.667 140.375 196.25 142.625C195.917 144.875 195.667 146.083 195.5 146.25C195.167 146.5 194.625 147.125 193.875 148.125C193.125 149.042 192.292 150 191.375 151C190.542 151.917 189.75 152.667 189 153.25C188.25 153.833 187.75 153.917 187.5 153.5C187.333 152.667 187.25 150.083 187.25 145.75C187.25 143.917 187.25 141.625 187.25 138.875C187.333 136.042 187.417 132.625 187.5 128.625C187.667 124.625 187.875 119.958 188.125 114.625C188.375 109.292 188.667 103.125 189 96.125C187.333 101.792 185.833 106.792 184.5 111.125C183.25 115.458 182.125 119.25 181.125 122.5C180.208 125.667 179.417 128.375 178.75 130.625C178.083 132.792 177.5 134.583 177 136C175.917 139.333 175.208 141.292 174.875 141.875C174.542 141.958 174 141.708 173.25 141.125C172.583 140.542 171.792 139.708 170.875 138.625C170.042 137.458 169.167 136.083 168.25 134.5C167.417 132.917 166.708 131.167 166.125 129.25C165.542 127.5 164.792 125.167 163.875 122.25C163.042 119.75 161.958 116.5 160.625 112.5C159.292 108.417 157.667 103.333 155.75 97.25C156.25 104.083 156.667 110.083 157 115.25C157.333 120.417 157.583 124.917 157.75 128.75C158 132.583 158.167 135.833 158.25 138.5C158.417 141.083 158.5 143.25 158.5 145C158.583 149 158.458 151.292 158.125 151.875C157.292 151.875 156.375 151.5 155.375 150.75C154.458 149.917 153.542 148.958 152.625 147.875C151.792 146.708 151.042 145.583 150.375 144.5C149.792 143.417 149.458 142.625 149.375 142.125C149.292 141.792 149.042 140.25 148.625 137.5C148.208 134.75 147.708 131.25 147.125 127C146.625 122.667 146.042 117.833 145.375 112.5C144.792 107.083 144.208 101.583 143.625 96C143.125 90.4167 142.708 85 142.375 79.75C142.042 74.4167 141.875 69.6667 141.875 65.5C141.875 64.8333 142.708 63.9583 144.375 62.875C146.042 61.7083 147.917 60.625 150 59.625C152.167 58.5417 154.167 57.625 156 56.875C157.833 56.0417 158.958 55.625 159.375 55.625C159.708 55.625 160.042 56.5833 160.375 58.5C160.792 60.4167 161.25 62.8333 161.75 65.75C162.25 68.6667 162.792 71.9167 163.375 75.5C163.958 79.0833 164.625 82.5 165.375 85.75C165.958 89.0833 166.667 92.5417 167.5 96.125C168.167 99.2083 168.917 102.625 169.75 106.375C170.667 110.042 171.667 113.625 172.75 117.125C173.917 112.042 174.958 107.458 175.875 103.375C176.875 99.2083 177.75 95.6667 178.5 92.75C179.417 89.3333 180.208 86.2917 180.875 83.625C182.375 77.125 183.833 72 185.25 68.25C186.75 64.5 187.708 62.2917 188.125 61.625C188.375 61.2917 189.25 61.2083 190.75 61.375C192.333 61.5417 194.042 61.8333 195.875 62.25C197.708 62.5833 199.375 63 200.875 63.5C202.458 64 203.333 64.4167 203.5 64.75ZM247.625 79.375C247.292 79.7917 245.25 79.8333 241.5 79.5C237.75 79.1667 231.833 78.625 223.75 77.875C223.75 80.625 223.75 84 223.75 88C223.833 92 223.833 96.2917 223.75 100.875C230 101.458 234.875 102 238.375 102.5C241.875 103 243.708 103.333 243.875 103.5C244.208 103.833 244.333 104.542 244.25 105.625C244.167 106.625 243.958 107.75 243.625 109C243.292 110.25 242.875 111.458 242.375 112.625C241.875 113.708 241.375 114.417 240.875 114.75C240.458 114.917 238.792 115.167 235.875 115.5C233.042 115.75 229 116 223.75 116.25C223.75 119.833 223.708 123.375 223.625 126.875C223.625 130.375 223.583 133.583 223.5 136.5C231.583 136.583 237.458 136.75 241.125 137C244.875 137.167 246.917 137.417 247.25 137.75C247.583 138.167 247.583 138.958 247.25 140.125C247 141.292 246.542 142.542 245.875 143.875C245.292 145.125 244.625 146.375 243.875 147.625C243.208 148.875 242.667 149.75 242.25 150.25C242.083 150.417 241.083 150.5 239.25 150.5C237.417 150.417 235.375 150.292 233.125 150.125C230.875 149.958 228.708 149.792 226.625 149.625C224.542 149.375 223.167 149.167 222.5 149C221.25 148.583 219.917 147.917 218.5 147C217.083 146 215.958 144.75 215.125 143.25C214.958 142.833 214.667 141.458 214.25 139.125C213.917 136.708 213.542 133.667 213.125 130C212.708 126.333 212.292 122.208 211.875 117.625C211.458 113.042 211.042 108.375 210.625 103.625C210.208 98.875 209.833 94.2083 209.5 89.625C209.167 85.0417 208.875 80.9167 208.625 77.25C208.458 73.5 208.375 70.4167 208.375 68C208.375 65.5 208.5 64 208.75 63.5C209 62.8333 210.167 62.3333 212.25 62C214.333 61.6667 216.833 61.4583 219.75 61.375C222.667 61.2083 225.792 61.1667 229.125 61.25C232.542 61.3333 235.708 61.5 238.625 61.75C241.542 61.9167 244 62.1667 246 62.5C248 62.75 249.125 63 249.375 63.25C249.708 63.6667 249.875 64.625 249.875 66.125C249.958 67.625 249.875 69.2917 249.625 71.125C249.458 72.875 249.167 74.5833 248.75 76.25C248.417 77.8333 248.042 78.875 247.625 79.375Z" fill="url(#paint1_linear_113_12)"/>
<path d="M355.16 92.3862H347.758V85.4641C347.758 81.3357 344.166 77.9772 339.754 77.9772C335.339 77.9772 331.75 81.3357 331.75 85.4641V92.3862H324.348C319.933 92.3862 316.344 95.7447 316.344 99.8708C316.344 103.999 319.936 107.358 324.348 107.358H331.75V114.28C331.75 118.408 335.342 121.764 339.754 121.764C344.169 121.764 347.758 118.406 347.758 114.28V107.358H355.16C359.575 107.358 363.164 103.999 363.164 99.8708C363.164 95.7447 359.573 92.3862 355.16 92.3862Z" fill="url(#paint2_linear_113_12)"/>
<path d="M420.245 95.5925C417.475 95.5925 415.219 97.7017 415.219 100.293C415.219 102.883 417.472 104.993 420.245 104.993C423.018 104.993 425.274 102.883 425.274 100.293C425.274 97.7017 423.016 95.5925 420.245 95.5925Z" fill="url(#paint3_linear_113_12)"/>
<path d="M438.227 112.408C435.457 112.408 433.199 114.515 433.199 117.108C433.199 119.701 435.454 121.81 438.227 121.81C441 121.81 443.253 119.701 443.253 117.108C443.253 114.515 441 112.408 438.227 112.408Z" fill="url(#paint4_linear_113_12)"/>
<path d="M438.227 88.1771C440.998 88.1771 443.253 86.0679 443.253 83.477C443.253 80.8861 441 78.777 438.227 78.777C435.454 78.777 433.199 80.8861 433.199 83.477C433.199 86.0679 435.457 88.1771 438.227 88.1771Z" fill="url(#paint5_linear_113_12)"/>
<path d="M455.176 42.7255C447.017 39.7497 434.416 43.1981 419.824 47.1882C408.924 50.1686 397.649 53.2528 388.053 53.5871C377.34 53.5871 364.949 50.0879 354.019 46.9991C340.471 43.1727 328.77 39.8649 321.072 42.6771C296.398 50.0926 270.222 131.761 278.791 159.42C280.972 166.467 285.36 170.171 291.268 170.171C292.515 170.171 293.829 170.007 295.205 169.673C306.652 167.518 318.797 162.318 331.659 156.808C349.957 148.971 368.878 140.869 388.048 140.447C407.93 141.019 426.733 149.114 444.915 156.942C457.558 162.384 469.498 167.525 480.778 169.645C488.796 171.591 494.68 167.958 497.32 159.422C505.883 131.761 479.708 50.0926 455.176 42.7255ZM355.16 111.97H352.688V114.28C352.688 120.951 346.885 126.377 339.752 126.377C332.621 126.377 326.816 120.951 326.816 114.28V111.97H324.343C317.21 111.97 311.407 106.544 311.407 99.873C311.407 93.2021 317.21 87.776 324.343 87.776H326.816V85.4663C326.816 78.7954 332.618 73.3692 339.752 73.3692C346.885 73.3692 352.688 78.7954 352.688 85.4663V87.776H355.16C362.291 87.776 368.096 93.2021 368.096 99.873C368.096 106.542 362.291 111.97 355.16 111.97ZM438.227 74.1645C443.717 74.1645 448.183 78.3413 448.183 83.477C448.183 88.6127 443.717 92.7895 438.227 92.7895C432.735 92.7895 428.269 88.6127 428.269 83.477C428.269 78.3413 432.735 74.1645 438.227 74.1645ZM420.245 109.605C414.756 109.605 410.289 105.428 410.289 100.293C410.289 95.1568 414.756 90.98 420.245 90.98C425.737 90.98 430.204 95.1568 430.204 100.293C430.204 105.428 425.737 109.605 420.245 109.605ZM438.227 126.421C432.735 126.421 428.269 122.244 428.269 117.108C428.269 111.975 432.735 107.798 438.227 107.798C443.717 107.798 448.183 111.975 448.183 117.108C448.186 122.244 443.719 126.421 438.227 126.421ZM456.209 109.605C450.72 109.605 446.253 105.428 446.253 100.293C446.253 95.1568 450.72 90.98 456.209 90.98C461.701 90.98 466.168 95.1568 466.168 100.293C466.168 105.428 461.701 109.605 456.209 109.605Z" fill="url(#paint6_linear_113_12)"/>
<path d="M456.209 95.5925C453.439 95.5925 451.183 97.7017 451.183 100.293C451.183 102.883 453.436 104.993 456.209 104.993C458.982 104.993 461.238 102.883 461.238 100.293C461.238 97.7017 458.98 95.5925 456.209 95.5925Z" fill="url(#paint7_linear_113_12)"/>
<defs>
<linearGradient id="paint0_linear_113_12" x1="583" y1="66" x2="583" y2="150" gradientUnits="userSpaceOnUse">
<stop stop-color="#D25801"/>
<stop offset="1" stop-color="#F4BE00"/>
</linearGradient>
<linearGradient id="paint1_linear_113_12" x1="143.176" y1="27" x2="143.176" y2="174.469" gradientUnits="userSpaceOnUse">
<stop stop-color="#F4BE00"/>
<stop offset="1" stop-color="#CE4A00"/>
</linearGradient>
<linearGradient id="paint2_linear_113_12" x1="339.754" y1="77.9772" x2="339.754" y2="121.764" gradientUnits="userSpaceOnUse">
<stop stop-color="#F4BE00"/>
<stop offset="1" stop-color="#CE4A00"/>
</linearGradient>
<linearGradient id="paint3_linear_113_12" x1="420.247" y1="95.5925" x2="420.247" y2="104.993" gradientUnits="userSpaceOnUse">
<stop stop-color="#F4BE00"/>
<stop offset="1" stop-color="#CE4A00"/>
</linearGradient>
<linearGradient id="paint4_linear_113_12" x1="438.226" y1="112.408" x2="438.226" y2="121.81" gradientUnits="userSpaceOnUse">
<stop stop-color="#F4BE00"/>
<stop offset="1" stop-color="#CE4A00"/>
</linearGradient>
<linearGradient id="paint5_linear_113_12" x1="438.226" y1="78.777" x2="438.226" y2="88.1771" gradientUnits="userSpaceOnUse">
<stop stop-color="#F4BE00"/>
<stop offset="1" stop-color="#CE4A00"/>
</linearGradient>
<linearGradient id="paint6_linear_113_12" x1="388.055" y1="41.6036" x2="388.055" y2="170.171" gradientUnits="userSpaceOnUse">
<stop stop-color="#F4BE00"/>
<stop offset="1" stop-color="#CE4A00"/>
</linearGradient>
<linearGradient id="paint7_linear_113_12" x1="456.21" y1="95.5925" x2="456.21" y2="104.993" gradientUnits="userSpaceOnUse">
<stop stop-color="#F4BE00"/>
<stop offset="1" stop-color="#CE4A00"/>
</linearGradient>
</defs>
</svg>
